<svg xmlns="http://www.w3.org/2000/svg" viewBox="0 0 400 400" role="img" aria-labelledby="t d"><title id="t">Victorian compass rose</title><desc id="d">Fine-line nautical compass rose in an engraved style.</desc><g fill="none" stroke="#64141a" stroke-width="3"><circle cx="200" cy="200" r="150"/><circle cx="200" cy="200" r="108"/><circle cx="200" cy="200" r="18"/><path d="M200 28 224 176 372 200 224 224 200 372 176 224 28 200 176 176Z"/><path d="m200 72 13 115 115 13-115 13-13 115-13-115-115-13 115-13Z"/><path d="M200 12v30M200 358v30M12 200h30M358 200h30"/></g><g fill="#64141a" font-family="Georgia,serif" font-size="22" text-anchor="middle"><text x="200" y="22">N</text><text x="200" y="396">S</text><text x="12" y="208">W</text><text x="388" y="208">E</text></g></svg>