<svg xmlns="http://www.w3.org/2000/svg" viewBox="0 0 1600 80" preserveAspectRatio="none" role="img" aria-labelledby="t"><title id="t">Decorative rope divider</title><rect width="1600" height="80" fill="none"/><g fill="none" stroke="#8b5539" stroke-width="8"><path d="M0 40c40-25 80-25 120 0s80 25 120 0 80-25 120 0 80 25 120 0 80-25 120 0 80 25 120 0 80-25 120 0 80 25 120 0 80-25 120 0 80 25 120 0 80-25 120 0 80 25 120 0 80-25 120 0 80 25 120 0"/><path opacity=".45" d="M0 48c40-25 80-25 120 0s80 25 120 0 80-25 120 0 80 25 120 0 80-25 120 0 80 25 120 0 80-25 120 0 80 25 120 0 80-25 120 0 80 25 120 0 80-25 120 0 80 25 120 0 80-25 120 0 80 25 120 0"/></g></svg>