<svg xmlns="http://www.w3.org/2000/svg" viewBox="0 0 1200 650" role="img" aria-labelledby="t d"><title id="t">Victorian shipbuilder plan</title><desc id="d">A crisp technical side elevation of a nineteenth-century coastal sailing vessel with construction lines.</desc><rect width="1200" height="650" fill="#f6efe2"/><g stroke="#b8a792" stroke-width="1" opacity=".65"><path d="M40 80h1120M40 160h1120M40 240h1120M40 320h1120M40 400h1120M40 480h1120M40 560h1120"/><path d="M120 40v570M240 40v570M360 40v570M480 40v570M600 40v570M720 40v570M840 40v570M960 40v570M1080 40v570"/></g><g fill="none" stroke="#26323a" stroke-linecap="round" stroke-linejoin="round"><path stroke-width="5" d="M112 438c107 57 240 82 403 83 220 1 407-35 555-108-31 79-86 121-164 143H280c-78-22-132-61-168-118Z"/><path stroke-width="3" d="M178 445c118 43 250 61 396 60 179-1 331-27 459-79M345 475v77M492 495v57M640 493v59M790 480v72M925 453v99"/><path stroke-width="6" d="M444 434V110M736 432V78"/><path stroke-width="3" d="M444 118 270 393M444 119 621 393M736 85 552 392M736 86 976 395"/><path stroke-width="2" d="M444 132 328 150l116 45-101 22 101 52-82 35 82 59M736 102l-116 32 116 53-96 28 96 48-76 40 76 57"/><path stroke-width="4" d="M222 425h760M305 406h585M395 384h405"/></g><g fill="#64141a" font-family="Manrope,Arial,sans-serif" font-size="16" letter-spacing="3"><text x="48" y="46">SHIPWRIGHT'S ELEVATION / COASTAL VESSEL</text><text x="970" y="614">SCALE 1:48</text></g><g fill="#26323a" font-family="Georgia,serif" font-size="20"><text x="92" y="600">Hull, rigging, proportion, and sequence: a vessel becomes seaworthy by decisions made before launch.</text></g></svg>